<?xml version="1.0" encoding="utf-8"?>
<svg xmlns="http://www.w3.org/2000/svg" width="2500" height="1431" viewBox="-32 0 208.147 75.816">
  <g>
    <path d="M -32 52.841 L -32 50.767 C -31.634 48.222 -30.545 45.679 -29.627 43.804 C -29.28 43.101 -29.065 42.284 -28.44 41.87 L -3.689 41.87 C -7.937 50.263 4.084 50.726 11.58 50.171 C 17.908 49.706 23.87 48.052 26.995 45.136 C 28.162 44.042 29.959 41.704 29.515 39.654 C 29.193 38.205 27.02 37.375 25.062 36.983 C 18.548 35.694 10.76 37.037 4.017 36.539 C 6.112 32.935 7.679 30.45 9.798 27.052 C 10.257 26.324 11.194 24.366 12.025 24.088 C 13.055 23.746 15.189 24.088 16.913 24.088 C 25.473 24.088 33.847 24.928 38.998 21.573 C 40.404 20.655 43.363 18.048 42.851 15.494 C 42.538 13.941 40.336 13.175 38.11 12.828 C 29.082 11.427 20.219 13.121 15.732 16.534 C 14.838 17.208 14.253 18.121 13.354 18.306 C 11.552 18.682 9.213 18.306 7.133 18.306 L -11.844 18.306 C -1.194 3.179 24.587 -1.738 51.74 0.523 C 59.196 1.148 69.367 2.642 70.861 8.824 C 71.59 11.827 69.943 15.387 68.488 17.569 C 64.225 23.956 56.989 27.955 48.625 29.278 C 53.405 30.352 57.707 32.177 56.926 38.316 C 56.53 41.457 54.236 44.765 52.038 47.359 C 41.398 59.908 21.594 63.957 -1.468 63.957 C -10.887 63.957 -19.832 63.225 -25.921 60.256 C -28.846 58.83 -31.575 56.464 -32 52.841 M 91.164 0.523 L 128.072 0.523 C 141.695 0.523 158.156 -0.981 164.826 5.86 C 166.138 7.208 167.512 9.605 167.79 12.086 C 168.503 18.404 165.275 24.381 163.044 28.39 C 153.044 46.403 138.104 59.362 113.84 62.775 C 107.58 63.654 100.901 63.517 93.69 63.517 L 51.892 63.517 C 51.311 63.517 51.99 62.663 52.185 62.329 C 53.811 59.57 56.003 56.554 57.815 53.735 C 64.089 43.989 70.261 33.608 76.79 24.087 L 101.248 24.087 C 101.79 24.36 100.9 25.181 100.652 25.571 C 95.759 33.247 90.374 41.562 85.388 49.282 L 105.837 49.282 C 118.586 49.282 126.783 43.182 132.668 35.503 C 134.107 33.618 135.412 31.671 136.667 29.277 C 138.063 26.616 139.803 22.768 138.592 19.492 C 136.19 12.978 122.087 14.604 112.951 14.604 L 82.57 14.604 C 82.028 14.331 82.868 13.442 83.161 12.973 C 84.211 11.288 85.306 9.579 86.424 7.783 C 87.995 5.264 89.51 2.676 91.164 0.523" style="fill: rgb(0, 162, 255);"/>
    <path d="M 115.324 75.816 L 1.501 75.816 C 1.462 75.699 1.374 75.645 1.203 75.666 C -7.702 75.24 -17.697 74.991 -23.109 71.223 C -24.432 70.295 -25.755 68.889 -26.073 67.223 C -16.669 69.065 -6.439 68.557 3.867 68.557 L 97.832 68.557 C 108.56 68.557 117.476 67.566 125.548 64.996 C 141.532 59.914 152.987 50.764 161.86 38.614 C 166.235 32.629 170.381 25.811 172.381 17.716 C 179.583 23.219 174.77 34.465 171.79 40.093 C 168.24 46.792 163.587 52.897 158.743 57.736 C 148.479 68.004 134.279 74.781 115.324 75.816" style="fill: rgb(0, 162, 255);"/>
  </g>
</svg>