<?xml version="1.0" encoding="utf-8"?>
<svg xmlns="http://www.w3.org/2000/svg" viewBox="0 0 183.601 75.925" xmlns:bx="https://boxy-svg.com">
  <defs>
    <linearGradient gradientUnits="userSpaceOnUse" x1="38.653" y1="2.849" x2="38.653" y2="78.773" id="gradient-0" gradientTransform="matrix(0.990752, 0.135684, -0.136802, 0.998917, -2.31835, -9.099227)">
      <stop offset="0" style="stop-color: rgb(233, 209, 51);"/>
      <stop offset="0.249" style="stop-color: rgb(213, 189, 34);"/>
      <stop offset="0.653" style="stop-color: rgb(230, 215, 126);"/>
      <stop offset="1" style="stop-color: rgb(184, 155, 2);"/>
    </linearGradient>
    <linearGradient id="gradient-2" bx:pinned="true">
      <stop offset="0" style="stop-color: rgb(233, 209, 51);"/>
      <stop offset="0.249" style="stop-color: rgb(213, 189, 34);"/>
      <stop offset="0.653" style="stop-color: rgb(230, 215, 126);"/>
      <stop offset="1" style="stop-color: rgb(184, 155, 2);"/>
    </linearGradient>
  </defs>
  <path style="fill: url(&quot;#gradient-0&quot;);" d="M 0 58.522 L 56.674 0.001 L 71.728 0.082 L 66.105 43.949 L 69.77 44.217 L 68.061 58.394 L 63.871 58.461 L 61.963 75.925 L 46.106 75.875 L 48.011 58.619 L 0 58.522 Z M 49.647 44.043 L 53.668 18.981 L 31.635 43.767 L 49.647 44.043 Z M 91.421 0.175 L 88.428 23.557 L 110.84 0 L 123.528 0.141 L 97.792 27.851 L 121.069 58.07 L 105.367 58.052 L 86.791 34.037 L 83.813 58.385 L 71.331 58.405 L 78.93 0.126 L 91.421 0.175 Z"/>
  <path d="M 77.673 60.384 L 82.308 60.384 L 81.02 69.346 C 80.893 70.235 80.634 71.074 80.244 71.863 C 79.853 72.652 79.32 73.343 78.644 73.934 C 77.968 74.525 77.287 74.941 76.603 75.18 C 75.653 75.515 74.545 75.683 73.281 75.683 C 72.549 75.683 71.759 75.632 70.909 75.529 C 70.059 75.426 69.365 75.223 68.827 74.919 C 68.29 74.614 67.821 74.182 67.42 73.622 C 67.018 73.061 66.771 72.484 66.679 71.889 C 66.529 70.932 66.507 70.084 66.613 69.346 L 67.901 60.384 L 72.536 60.384 L 71.217 69.561 C 71.1 70.381 71.235 71.022 71.623 71.484 C 72.011 71.945 72.609 72.176 73.416 72.176 C 74.216 72.176 74.875 71.949 75.395 71.494 C 75.915 71.039 76.235 70.395 76.354 69.561 L 77.673 60.384 Z M 85.383 60.384 L 90.028 60.384 L 88.4 71.714 L 95.65 71.714 L 95.118 75.416 L 83.223 75.416 L 85.383 60.384 Z M 97.801 60.384 L 111.92 60.384 L 111.387 64.096 L 106.65 64.096 L 105.023 75.416 L 100.378 75.416 L 102.005 64.096 L 97.268 64.096 L 97.801 60.384 Z M 111.391 75.416 L 113.551 60.384 L 121.292 60.384 C 122.728 60.384 123.808 60.507 124.531 60.753 C 125.255 60.999 125.801 61.455 126.17 62.122 C 126.539 62.789 126.655 63.6 126.518 64.557 C 126.398 65.391 126.117 66.111 125.674 66.716 C 125.231 67.321 124.672 67.811 123.996 68.187 C 123.565 68.426 122.993 68.625 122.28 68.782 C 122.807 68.967 123.184 69.151 123.411 69.335 C 123.564 69.458 123.774 69.722 124.04 70.125 C 124.307 70.528 124.479 70.839 124.557 71.058 L 126.177 75.416 L 120.927 75.416 L 119.105 70.822 C 118.877 70.227 118.652 69.841 118.432 69.664 C 118.13 69.431 117.767 69.315 117.343 69.315 L 116.933 69.315 L 116.056 75.416 L 111.391 75.416 Z M 117.341 66.475 L 119.3 66.475 C 119.512 66.475 119.932 66.407 120.559 66.27 C 120.876 66.208 121.15 66.051 121.381 65.798 C 121.612 65.545 121.752 65.254 121.799 64.926 C 121.868 64.441 121.768 64.068 121.498 63.809 C 121.228 63.549 120.669 63.419 119.821 63.419 L 117.78 63.419 L 117.341 66.475 Z M 137.269 72.935 L 131.978 72.935 L 130.894 75.416 L 126.147 75.416 L 133.956 60.384 L 139.022 60.384 L 142.512 75.416 L 137.651 75.416 L 137.269 72.935 Z M 136.763 69.684 L 135.878 64.28 L 133.451 69.684 L 136.763 69.684 Z M 153.183 60.384 L 157.828 60.384 L 157.072 65.644 L 162.148 65.644 L 162.904 60.384 L 167.569 60.384 L 165.409 75.416 L 160.744 75.416 L 161.618 69.335 L 156.542 69.335 L 155.668 75.416 L 151.023 75.416 L 153.183 60.384 Z M 170.716 60.384 L 177.617 60.384 C 178.978 60.384 180.051 60.568 180.835 60.937 C 181.619 61.306 182.235 61.836 182.682 62.527 C 183.13 63.217 183.411 64.02 183.526 64.937 C 183.64 65.853 183.624 66.824 183.477 67.849 C 183.246 69.455 182.884 70.701 182.39 71.586 C 181.897 72.471 181.283 73.213 180.548 73.811 C 179.812 74.409 179.058 74.807 178.285 75.006 C 177.227 75.279 176.284 75.416 175.457 75.416 L 168.556 75.416 L 170.716 60.384 Z M 174.872 63.788 L 173.692 72.001 L 174.83 72.001 C 175.8 72.001 176.507 71.893 176.948 71.678 C 177.389 71.463 177.764 71.087 178.073 70.551 C 178.383 70.014 178.624 69.144 178.797 67.941 C 179.026 66.348 178.923 65.258 178.488 64.67 C 178.054 64.082 177.235 63.788 176.031 63.788 L 174.872 63.788 Z" style="fill: rgb(255, 255, 255); text-wrap-mode: nowrap;"/>
</svg>