<?xml version="1.0" encoding="utf-8"?>
<svg version="1.1" id="Layer_1" xmlns="http://www.w3.org/2000/svg" x="0px" y="0px" width="1000px" height="370.954px" viewBox="0 0 1000 342.954" enable-background="new 0 0 1000 370.954">
  <path d="M 860.037 127.071 C 860.037 164.163 829.854 194.342 792.759 194.342 C 778.464 194.342 765.213 189.843 754.3 182.213 L 754.3 194.374 L 724.819 194.374 L 724.809 0.031 L 754.3 0.031 L 754.3 71.933 C 765.213 64.297 778.464 59.809 792.759 59.809 C 829.854 59.809 860.037 89.977 860.037 127.071 Z M 833.321 126.827 C 833.321 104.568 815.018 86.263 792.759 86.263 C 774.934 86.263 759.683 97.851 754.3 114.022 C 752.961 118.043 752.205 122.345 752.205 126.828 C 752.205 131.284 752.961 135.575 754.3 139.596 C 759.64 155.672 774.774 167.376 792.759 167.376 C 815.018 167.376 833.32 149.333 833.321 126.827 Z" style="fill: rgb(255, 255, 255);"/>
  <path d="M 651.605 127.062 C 651.605 164.164 621.441 194.331 584.346 194.331 C 547.239 194.331 517.076 164.164 517.076 127.062 C 517.076 89.965 547.24 59.797 584.346 59.797 C 621.44 59.797 651.604 89.965 651.605 127.062 Z M 624.899 126.816 C 624.899 104.557 606.594 86.263 584.346 86.263 C 562.086 86.263 543.792 104.306 543.792 126.816 C 543.792 149.071 561.84 167.376 584.346 167.376 C 606.594 167.376 624.898 149.322 624.899 126.816 Z" style="fill: rgb(255, 255, 255);"/>
  <path d="M 502.143 97.077 C 502.143 150.593 458.591 194.145 405.074 194.145 L 334.966 194.145 L 334.966 0 L 405.074 0 C 458.591 0 502.144 43.552 502.143 97.077 Z M 472.704 97.077 C 472.704 59.809 442.331 29.434 405.063 29.434 L 364.382 29.434 L 364.382 164.711 L 405.063 164.711 C 442.331 164.711 472.704 134.336 472.704 97.077 Z" style="fill: rgb(255, 255, 255);"/>
  <path d="M 276.172 0.011 L 247.531 0.011 C 194.055 0.011 150.47 43.595 150.47 97.076 C 150.47 150.551 194.054 194.144 247.531 194.144 L 276.172 194.144 L 276.172 0.011 Z" style="fill: rgb(255, 255, 255);"/>
  <g>
    <path d="M 668.11 298.61 C 668.11 305.112 666.972 311.07 664.716 316.493 C 662.463 321.918 659.347 326.587 655.4 330.511 C 651.434 334.431 646.722 337.477 641.265 339.657 C 635.788 341.826 629.854 342.912 623.441 342.912 C 617.028 342.912 611.104 341.826 605.69 339.657 C 600.256 337.476 595.576 334.43 591.61 330.511 C 587.642 326.587 584.569 321.918 582.344 316.493 C 580.122 311.07 579.016 305.112 579.016 298.61 C 579.016 292.043 580.122 286.043 582.344 280.62 C 584.569 275.195 587.642 270.569 591.61 266.719 C 595.576 262.881 600.256 259.893 605.69 257.748 C 611.104 255.616 617.028 254.548 623.441 254.548 C 629.854 254.548 635.789 255.616 641.265 257.748 C 646.722 259.893 651.434 262.881 655.4 266.719 C 659.347 270.57 662.463 275.196 664.716 280.62 C 666.973 286.043 668.11 292.043 668.11 298.61 Z M 655.4 298.61 C 655.4 294.015 654.635 289.691 653.146 285.607 C 651.624 281.534 649.499 277.94 646.722 274.855 C 643.946 271.766 640.606 269.335 636.683 267.547 C 632.769 265.773 628.343 264.878 623.441 264.878 C 618.613 264.878 614.231 265.773 610.317 267.547 C 606.404 269.335 603.064 271.766 600.341 274.855 C 597.607 277.94 595.49 281.534 593.982 285.607 C 592.482 289.691 591.726 294.015 591.726 298.61 C 591.726 303.284 592.482 307.681 593.982 311.798 C 595.491 315.913 597.629 319.496 600.395 322.55 C 603.168 325.597 606.499 327.995 610.369 329.735 C 614.252 331.478 618.613 332.35 623.441 332.35 C 628.269 332.35 632.662 331.478 636.619 329.735 C 640.586 327.996 643.946 325.597 646.723 322.55 C 649.499 319.496 651.624 315.913 653.147 311.798 C 654.636 307.682 655.4 303.284 655.4 298.61 Z" style="fill: rgb(255, 255, 255);"/>
    <path d="M 261.017 342.954 L 247.265 342.954 L 285.628 254.505 L 296.869 254.505 L 334.836 342.954 L 320.852 342.954 L 311.864 321.221 L 269.887 321.221 L 261.017 342.954 Z M 274.257 310.352 L 307.366 310.352 L 290.869 268.868 L 274.257 310.352 Z" style="fill: rgb(255, 255, 255);"/>
    <path d="M 751.896 264.173 C 749.29 261.242 745.833 258.913 741.569 257.17 C 737.293 255.431 732.699 254.558 727.798 254.558 C 724.319 254.558 720.853 255.015 717.395 255.919 C 713.959 256.834 710.866 258.28 708.143 260.253 C 705.409 262.237 703.187 264.731 701.484 267.734 C 699.783 270.75 698.942 274.345 698.942 278.551 C 698.942 282.428 699.571 285.671 700.836 288.277 C 702.102 290.888 703.762 293.09 705.825 294.877 C 707.877 296.648 710.226 298.121 712.833 299.264 C 715.439 300.408 718.098 301.387 720.788 302.184 C 723.479 303.045 726.032 303.89 728.446 304.731 C 730.861 305.56 732.987 306.571 734.795 307.756 C 736.626 308.947 738.061 310.394 739.134 312.091 C 740.209 313.793 740.741 315.914 740.741 318.44 C 740.741 320.982 740.22 323.135 739.187 324.912 C 738.166 326.699 736.837 328.178 735.221 329.369 C 733.594 330.554 731.785 331.426 729.819 331.98 C 727.83 332.538 725.851 332.809 723.884 332.809 C 719.989 332.809 716.396 331.905 713.067 330.086 C 709.739 328.267 707.09 325.89 705.112 322.96 L 695.966 330.67 C 699.209 334.712 703.304 337.764 708.248 339.822 C 713.206 341.879 718.321 342.9 723.639 342.9 C 727.361 342.9 730.966 342.39 734.498 341.369 C 738.029 340.332 741.135 338.774 743.826 336.673 C 746.514 334.574 748.675 331.926 750.302 328.713 C 751.909 325.513 752.727 321.732 752.727 317.376 C 752.727 313.18 751.983 309.719 750.472 306.986 C 748.974 304.252 747.038 301.986 744.656 300.157 C 742.284 298.339 739.624 296.882 736.701 295.764 C 733.765 294.658 730.882 293.663 728.032 292.798 C 725.649 291.999 723.428 291.223 721.321 290.473 C 719.216 289.733 717.396 288.819 715.865 287.75 C 714.322 286.682 713.089 285.367 712.175 283.831 C 711.272 282.283 710.814 280.369 710.814 278.066 C 710.814 275.695 711.303 273.658 712.292 271.951 C 713.282 270.25 714.569 268.823 716.154 267.681 C 717.739 266.536 719.503 265.697 721.438 265.186 C 723.375 264.665 725.298 264.411 727.204 264.411 C 730.767 264.411 733.968 265.144 736.817 266.612 C 739.668 268.069 741.922 269.957 743.592 272.243 L 751.896 264.173 Z" style="fill: rgb(255, 255, 255);"/>
    <path d="M 472.258 254.505 L 453.029 254.505 L 453.029 342.954 L 465.014 342.954 L 465.014 268.995 L 465.26 268.995 L 494.496 342.954 L 502.366 342.954 L 531.72 268.995 L 531.975 268.995 L 531.975 342.954 L 544.343 342.954 L 544.343 254.505 L 525.114 254.505 L 498.994 322.46 L 498.737 322.46 L 472.258 254.505 Z" style="fill: rgb(255, 255, 255);"/>
    <path d="M 390.748 265.373 L 419.112 265.373 L 419.112 254.505 L 350.025 254.505 L 350.025 265.373 L 378.378 265.373 L 378.378 342.954 L 390.748 342.954 L 390.748 265.373 Z" style="fill: rgb(255, 255, 255);"/>
  </g>
  <path d="M 967.85 59.84 L 929.521 146.041 L 891.169 59.84 L 859.018 59.84 L 913.428 182.144 L 912.344 184.52 L 911.959 185.366 L 900.177 211.976 L 900.102 212.183 C 896.572 220.09 887.266 223.669 879.373 220.144 L 875.15 218.272 L 866.928 236.741 L 863.271 244.929 L 863.281 244.929 L 863.325 244.95 L 873.513 249.491 C 892.646 258.032 915.213 249.348 923.775 230.173 C 923.851 230.009 993.459 74.459 1000 59.84 L 967.85 59.84 L 967.85 59.84 Z" style="fill: rgb(255, 255, 255);"/>
  <path d="M 670.643 194.374 L 700.071 194.374 L 700.071 0.031 L 670.643 0.031 L 670.643 194.374 Z" style="fill: rgb(255, 255, 255);"/>
  <path d="M 0 194.145 L 28.652 194.145 C 82.106 194.145 125.701 150.551 125.701 97.077 C 125.701 43.596 82.106 0.012 28.652 0.012 L 0 0.012 L 0 194.145 Z" style="fill: rgb(255, 255, 255);"/>
</svg>