<?xml version="1.0" encoding="utf-8"?>
<svg xmlns="http://www.w3.org/2000/svg" version="1.1" width="840.1" height="329.5" id="svg4575">
  <path d="M 607.869 293.333 C 599.193 290.108 589.868 290.108 582.491 290.108 L 582.491 315.185 C 589.311 315.185 600.237 315.58 610.606 318.966 C 621.811 322.19 643.988 329.451 684.073 329.451 C 776.538 329.451 840.053 302.844 840.053 259.139 C 840.053 236.87 806.022 215.227 780.157 192.841 C 773.105 185.418 767.213 179.247 770.159 171.546 C 773.105 159.668 801.267 157.952 824.232 159.668 L 827.596 143.801 C 797.254 134.661 765.125 129.628 731.141 129.628 C 645.611 129.628 591.399 153.962 591.399 188.944 C 591.399 215.227 623.55 234.411 656.421 261.018 C 666.141 271.272 666.141 275.819 663.195 285.33 C 658.3 299.202 627.912 299.202 607.869 293.333 Z M 382.876 91.05 L 529.832 24.728 L 529.344 133.432 L 568.432 133.432 L 568.432 167.764 L 529.344 167.764 L 529.344 282.871 C 529.344 287.997 538.391 293.333 545.606 294.284 C 557.019 295.212 568.432 289.691 582.49 289.691 L 582.49 315.185 C 573.953 315.185 565.672 315.58 553.795 318.247 C 528.509 324.696 498.306 326.946 470.075 326.946 C 426.162 326.946 381.39 308.527 381.39 275.262 L 381.39 167.764 L 335.83 167.764 L 335.83 133.432 L 382.875 133.432 L 382.875 91.05 L 382.876 91.05 Z M 186.996 0 L 186.996 142.201 C 165.7 132.597 151.341 131.066 128.12 131.159 C 64.582 133.432 -0.162 166.79 0 229.284 C 0 290.108 57.414 330.774 120.326 329.451 C 147.305 328.477 163.149 326.946 186.996 315.185 L 186.996 326.946 L 335.831 326.946 L 335.831 0 L 186.996 0 Z M 186.996 175.443 L 186.996 286.861 C 160.435 278.881 146.261 256.634 146.702 229.284 C 147.559 203.233 162.082 182.866 186.996 175.443" id="path476" style="fill:#ffffff;fill-opacity:1;fill-rule:evenodd;stroke:none"/>
</svg>