<?xml version="1.0" encoding="utf-8"?>
<svg version="1.0" xmlns="http://www.w3.org/2000/svg" width="1051.000000pt" height="393.000000pt" viewBox="0 0 1045.79 359.59" preserveAspectRatio="xMidYMid meet">
  <g transform="matrix(1, 0, 0, 1, -4.999897, -0.8)">
    <path d="M 5 102.5 L 5 204.2 L 27.3 203.7 C 41.9 203.3 51.7 202.6 56 201.6 C 92.1 193.1 119.8 168.2 131.3 133.9 C 135.2 122.3 136.3 112.8 135.7 97.3 C 135 77.3 130.5 63.3 119.4 46.2 C 106.4 26.3 86.5 11.8 62 4.3 C 54.1 1.9 51.8 1.7 29.3 1.2 L 5 0.8 L 5 102.5 Z" style="fill: rgb(255, 255, 255);" fill="#000000" stroke="none"/>
    <path d="M 243.6 2.6 C 199.3 12.1 167.4 47.9 163 93.1 C 160 123.9 171.6 154.2 195 176.3 C 205.4 186.2 216.2 192.8 229.5 197.6 C 242.8 202.3 254.8 204 276.3 204 L 294 204 L 294 102.5 L 294 1 L 272.3 1.1 C 257.1 1.1 248.4 1.6 243.6 2.6 Z" style="fill: rgb(255, 255, 255);" fill="#000000" stroke="none"/>
    <path d="M 355.2 102.2 L 355.5 203.5 L 398 203.5 C 428.9 203.5 442.3 203.1 447 202.2 C 468.3 197.9 487.7 187.4 502 172.3 C 513.9 159.9 521.4 146.8 526.7 129.5 C 529.2 121.1 529.4 119.2 529.4 102.5 C 529.5 86.7 529.2 83.6 527.2 76.6 C 520 51.5 505.1 30.8 484.8 17.6 C 475.1 11.3 467.8 7.9 456 4.2 L 447.5 1.6 L 401.2 1.2 L 355 0.9 L 355.2 102.2 Z M 437.7 32.1 C 454.2 34.3 466 40.2 478.1 52 C 500.8 74.3 506 107 491.4 135.1 C 484.4 148.4 473.8 158.5 459.5 165.5 C 446.3 172 439.8 173 410.5 173 L 386 173 L 386 102.7 C 386 64 386.3 32 386.7 31.7 C 387.8 30.6 429.2 30.9 437.7 32.1 Z" style="fill: rgb(255, 255, 255);" fill="#000000" stroke="none"/>
    <path d="M 707 102.5 L 707 204 L 722.5 204 L 738 204 L 738 102.5 L 738 1 L 722.5 1 L 707 1 L 707 102.5 Z" style="fill: rgb(255, 255, 255);" fill="#000000" stroke="none"/>
    <path d="M 764 102.5 L 764 204 L 779 204 L 794 204 L 794 198 C 794 194.7 794.2 192 794.5 192 C 794.7 192 797.8 193.5 801.2 195.4 C 821.4 206.4 844.5 206.7 866 196.3 C 873.9 192.5 876.8 190.4 884 183.1 C 891.2 176 893.5 172.9 897.4 165 C 907.6 144.3 907.6 123.6 897.5 102.5 C 885.5 77.4 858.1 61.4 830.5 63.4 C 819 64.2 808 67.6 799.8 72.7 C 797.7 74 795.6 75 795 75 C 794.3 75 794 62.5 794 38 L 794 1 L 779 1 L 764 1 L 764 102.5 Z M 847.2 93 C 869.1 99.7 882 124 875.2 145.7 C 869 165.5 848.4 178.5 828.6 175.2 C 819 173.7 811.8 170 805.1 163.3 C 792 150.1 788.7 132.2 796.4 115.5 C 799.1 109.5 806.5 101 812.2 97.4 C 822.2 91.1 835.6 89.4 847.2 93 Z" style="fill: rgb(255, 255, 255);" fill="#000000" stroke="none"/>
    <path d="M 603.5 64.4 C 578.2 69.3 557.5 87.6 549.3 112.5 C 547 119.5 546.7 122.1 546.7 133.5 C 546.7 144.9 547 147.5 549.3 154.5 C 553 165.8 558.3 174.3 567 183.1 C 575.4 191.6 584 196.9 595.8 200.8 C 602.5 203 605.2 203.4 616.5 203.4 C 627.8 203.4 630.5 203 637.2 200.8 C 649.1 196.9 657.6 191.6 666 183.1 C 674.7 174.2 680 165.7 683.7 154.5 C 685.9 147.8 686.3 144.6 686.4 134.5 C 686.5 120.8 685 113.8 679.5 102.5 C 666.1 74.8 633.8 58.5 603.5 64.4 Z M 628.7 92.8 C 640.4 96.5 649.3 104.2 654.7 115.7 C 666.8 141 650.9 170.5 622.6 175.2 C 596.8 179.5 572.3 156.9 574.3 130.5 C 576.3 103.4 603 84.8 628.7 92.8 Z" style="fill: rgb(255, 255, 255);" fill="#000000" stroke="none"/>
    <path d="M 905.9 67.2 C 906.9 69.6 919.7 98.4 934.4 131.4 L 961 191.2 L 953.8 207.4 C 949.9 216.2 946 224.5 945.2 225.7 C 941.5 231.5 932 233.7 924.4 230.5 L 920.9 229.1 L 919.1 233.3 C 918.1 235.6 915.4 241.7 913.1 246.8 C 910.8 252 909.2 256.5 909.5 257 C 909.8 257.4 913.5 259.3 917.8 261.1 C 924.8 264.2 926.4 264.5 935.5 264.5 C 944.8 264.5 946 264.3 952.2 261.2 C 959.8 257.5 967.1 250.8 970.2 244.6 C 973.1 238.9 1050.1 66.9 1050.7 64.7 C 1051.2 63.1 1050.1 63 1034.6 63.2 L 1017.9 63.5 L 999.4 105 C 989.2 127.8 980.2 148.1 979.4 150 L 977.9 153.5 L 957.8 108.2 L 937.7 63 L 920.9 63 L 904.1 63 L 905.9 67.2 Z" style="fill: rgb(255, 255, 255);" fill="#000000" stroke="none"/>
  </g>
  <g style="transform-origin: 528px 37px;" transform="matrix(1, 0, 0, 1, -5.105, -29.510376)">
    <path d="M 265 296.2 C 265 296.4 273.1 317.3 282.9 342.5 L 300.8 388.5 L 306.7 388.8 L 312.6 389.1 L 330.4 343.8 C 340.2 318.9 348.4 297.9 348.7 297.2 C 349.1 296.3 347.4 296 342.2 296 C 337.5 296 335.1 296.4 334.8 297.2 C 334.5 297.9 328.3 314.8 321 334.7 C 313.7 354.7 307.4 371 307.1 371 C 306.8 371 300.4 354.2 292.9 333.7 L 279.3 296.5 L 272.1 296.2 C 268.2 296 265 296.1 265 296.2 Z" style="fill: rgb(255, 255, 255);" fill="#000000" stroke="none"/>
    <path d="M 380.5 297.2 C 380.2 297.9 380.1 318.7 380.2 343.5 L 380.5 388.5 L 386.8 388.8 L 393 389.1 L 393 342.5 L 393 296 L 387 296 C 383.1 296 380.8 296.4 380.5 297.2 Z" style="fill: rgb(255, 255, 255);" fill="#000000" stroke="none"/>
    <path d="M 458 297 C 448.3 298.6 440.2 304.2 436.9 311.5 C 434.6 316.5 434.5 325.8 436.6 330.8 C 439.8 338.5 445.7 342.5 461 347.5 C 470.9 350.7 475.6 353.9 477.6 358.7 C 480.4 365.2 476.5 373.6 469.3 376.6 C 461.5 379.9 448.1 376.7 443.2 370.5 L 441.3 368.1 L 436.5 372.4 L 431.7 376.6 L 436 380.3 C 448.1 390.6 470.7 391.5 482.2 382 C 487.6 377.6 491 370 491 362.6 C 490.9 349.6 483.1 341.3 466.8 337 C 464.4 336.3 459.7 334.5 456.4 332.9 C 451.6 330.7 449.8 329.2 448.5 326.4 C 445.3 319.7 448 312.6 455 309 C 462.3 305.3 474.3 307.2 479.4 312.9 L 481.4 315.1 L 485.7 310.8 C 489.8 306.8 489.9 306.5 488.2 304.7 C 485.5 301.7 478 298.3 471.5 297.1 C 465.1 295.9 464.5 295.9 458 297 Z" style="fill: rgb(255, 255, 255);" fill="#000000" stroke="none"/>
    <path d="M 532 342.5 L 532 389 L 538.5 389 L 545 389 L 545 342.5 L 545 296 L 538.5 296 L 532 296 L 532 342.5 Z" style="fill: rgb(255, 255, 255);" fill="#000000" stroke="none"/>
    <path d="M 621 297 C 606.3 299.5 594.6 308.4 588.2 321.9 C 585 328.4 584.6 330.3 584.2 339.4 C 583.5 355.5 587.5 366.5 597.7 376.1 C 611.7 389.3 633.7 392.5 651.8 383.8 C 674.5 373 683.4 344.3 671.6 320.4 C 662.8 302.7 642.6 293.3 621 297 Z M 644.2 310.2 C 654.2 314.8 660.7 323.8 663 336.3 C 665 346.9 661.2 360 654.2 367.3 C 644.1 377.8 629.7 380.5 616.5 374.6 C 609.1 371.3 604.5 366.7 600.8 359.2 C 597.7 353 597.5 351.8 597.5 342.5 C 597.5 333.8 597.9 331.8 600.1 327 C 606.5 313.3 617.4 306.6 632.1 307.4 C 636.4 307.6 640.6 308.6 644.2 310.2 Z" style="fill: rgb(255, 255, 255);" fill="#000000" stroke="none"/>
    <path d="M 713.5 297.2 C 713.2 297.9 713.1 318.7 713.2 343.5 L 713.5 388.5 L 719.8 388.8 L 726 389.1 L 726 351.5 C 726 330.8 726.3 314.1 726.8 314.4 C 727.2 314.6 738.3 331.5 751.5 351.9 L 775.5 389 L 783.3 389 L 791 389 L 791 342.5 L 791 296 L 785 296 L 779 296 L 778.8 333.2 L 778.5 370.4 L 754.4 333.4 L 730.3 296.5 L 722.1 296.2 C 716.2 296 713.8 296.3 713.5 297.2 Z" style="fill: rgb(255, 255, 255);" fill="#000000" stroke="none"/>
  </g>
</svg>