<?xml version="1.0" encoding="utf-8"?>
<svg xmlns="http://www.w3.org/2000/svg" viewBox="0 0 160 102.814" xmlns:bx="https://boxy-svg.com">
  <path d="M 2.3 15.044 L 12.74 15.044 L 12.74 31.364 L 28.58 31.364 L 28.58 15.044 L 39.02 15.044 L 39.02 57.044 L 28.58 57.044 L 28.58 40.124 L 12.74 40.124 L 12.74 57.044 L 2.3 57.044 Z M 48.318 57.524 Q 45.498 57.524 43.788 55.874 Q 42.078 54.224 42.078 51.884 Q 42.078 49.484 43.788 47.834 Q 45.498 46.184 48.318 46.184 Q 51.138 46.184 52.848 47.834 Q 54.558 49.484 54.558 51.884 Q 54.558 54.224 52.848 55.874 Q 51.138 57.524 48.318 57.524 Z M 56.719 49.424 L 67.699 38.984 Q 70.699 36.164 72.409 34.334 Q 74.119 32.504 74.869 31.004 Q 75.619 29.504 75.619 27.824 Q 75.619 25.784 74.539 24.674 Q 73.459 23.564 71.299 23.564 Q 69.979 23.564 68.959 24.254 Q 67.939 24.944 67.339 26.294 Q 66.739 27.644 66.679 29.684 L 56.599 29.684 Q 56.719 24.404 58.819 21.104 Q 60.919 17.804 64.339 16.214 Q 67.759 14.624 71.839 14.624 Q 76.879 14.624 80.059 16.364 Q 83.239 18.104 84.739 20.984 Q 86.239 23.864 86.239 27.284 Q 86.239 29.984 85.429 32.234 Q 84.619 34.484 82.639 36.914 Q 80.659 39.344 77.059 42.644 L 70.879 48.284 L 86.959 48.284 L 86.959 57.044 L 56.719 57.044 Z M 105.259 57.464 Q 100.579 57.464 96.919 55.544 Q 93.259 53.624 91.129 50.234 Q 88.999 46.844 88.999 42.464 Q 88.999 39.284 90.289 35.924 Q 91.579 32.564 94.339 28.844 L 104.599 15.044 L 116.119 15.044 L 103.879 31.124 L 95.599 40.904 Q 96.439 35.204 99.799 32.144 Q 103.159 29.084 107.899 29.084 Q 111.559 29.084 114.619 30.674 Q 117.679 32.264 119.539 35.294 Q 121.399 38.324 121.399 42.704 Q 121.399 47.204 119.179 50.534 Q 116.959 53.864 113.299 55.664 Q 109.639 57.464 105.259 57.464 Z M 99.559 42.764 Q 99.559 44.504 100.249 45.824 Q 100.939 47.144 102.229 47.864 Q 103.519 48.584 105.259 48.584 Q 106.999 48.584 108.259 47.864 Q 109.519 47.144 110.179 45.824 Q 110.839 44.504 110.839 42.764 Q 110.839 41.024 110.179 39.734 Q 109.519 38.444 108.259 37.724 Q 106.999 37.004 105.259 37.004 Q 103.519 37.004 102.229 37.724 Q 100.939 38.444 100.249 39.734 Q 99.559 41.024 99.559 42.764 Z M 142.338 49.004 L 122.358 49.004 L 122.358 40.784 L 141.198 15.044 L 152.778 15.044 L 152.778 40.244 L 157.818 40.244 L 157.818 49.004 L 152.778 49.004 L 152.778 57.044 L 142.338 57.044 Z M 143.118 40.244 L 143.118 26.744 L 133.338 40.244 Z" style="fill: url(&quot;#color-0-0&quot;); text-wrap-mode: nowrap;"/>
  <defs>
    <linearGradient id="gradient-2">
      <stop offset="0" style="stop-color: rgb(233, 209, 51);"/>
      <stop offset="0.249" style="stop-color: rgb(213, 189, 34);"/>
      <stop offset="0.653" style="stop-color: rgb(230, 215, 126);"/>
      <stop offset="1" style="stop-color: rgb(184, 155, 2);"/>
    </linearGradient>
    <linearGradient bx:pinned="true" id="color-0">
      <stop style="stop-color: rgb(135, 133, 121);" offset="0.037"/>
      <stop style="stop-color: rgb(225, 225, 225);" offset="0.33"/>
      <stop style="stop-color: rgb(229, 229, 229);" offset="0.69"/>
      <stop style="stop-color: rgb(65, 65, 65);" offset="1"/>
    </linearGradient>
    <linearGradient id="color-0-0" href="#color-0" gradientUnits="userSpaceOnUse" x1="177.021" y1="65.73" x2="177.021" y2="137.744" gradientTransform="matrix(1, 0, 0, 1, -100.202888, -65.672997)"/>
  </defs>
  <rect x="29.068" y="62.17" width="103.327" height="36.791" style="fill: url(&quot;#gradient-2&quot;);"/>
  <path d="M 58.603 72.322 L 57.271 72.322 L 49.747 93.814 L 45.211 93.814 L 54.175 68.614 L 61.627 68.614 L 70.627 93.814 L 66.091 93.814 Z M 50.251 84.058 L 64.939 84.058 L 64.939 87.766 L 50.251 87.766 Z M 86.111 68.614 L 90.827 68.614 L 81.467 93.814 L 76.211 93.814 L 66.851 68.614 L 71.603 68.614 L 78.839 89.278 Z M 90.699 81.214 Q 90.699 78.37 91.653 76.012 Q 92.607 73.654 94.353 71.944 Q 96.099 70.234 98.421 69.298 Q 100.743 68.362 103.443 68.362 Q 107.187 68.362 110.211 70.162 Q 113.235 71.962 114.747 75.31 L 111.111 76.498 Q 110.283 74.95 109.023 73.978 Q 107.763 73.006 106.341 72.574 Q 104.919 72.142 103.551 72.142 Q 101.139 72.142 99.231 73.276 Q 97.323 74.41 96.243 76.444 Q 95.163 78.478 95.163 81.214 Q 95.163 83.95 96.243 85.984 Q 97.323 88.018 99.231 89.152 Q 101.139 90.286 103.551 90.286 Q 104.955 90.286 106.431 89.836 Q 107.907 89.386 109.239 88.27 Q 110.571 87.154 111.435 85.282 L 115.071 86.398 Q 113.451 90.286 110.373 92.176 Q 107.295 94.066 103.443 94.066 Q 100.743 94.066 98.421 93.13 Q 96.099 92.194 94.353 90.466 Q 92.607 88.738 91.653 86.38 Q 90.699 84.022 90.699 81.214 Z" style="text-wrap-mode: nowrap;"/>
</svg>