<?xml version="1.0" encoding="utf-8"?>
<svg xmlns="http://www.w3.org/2000/svg" viewBox="0 0 155.638 102.814" xmlns:bx="https://boxy-svg.com">
  <path d="M 2.3 15.044 L 12.74 15.044 L 12.74 31.364 L 28.58 31.364 L 28.58 15.044 L 39.02 15.044 L 39.02 57.044 L 28.58 57.044 L 28.58 40.124 L 12.74 40.124 L 12.74 57.044 L 2.3 57.044 Z M 48.319 57.524 Q 45.499 57.524 43.789 55.874 Q 42.079 54.224 42.079 51.884 Q 42.079 49.484 43.789 47.834 Q 45.499 46.184 48.319 46.184 Q 51.139 46.184 52.849 47.834 Q 54.559 49.484 54.559 51.884 Q 54.559 54.224 52.849 55.874 Q 51.139 57.524 48.319 57.524 Z M 56.719 49.424 L 67.699 38.984 Q 70.699 36.164 72.409 34.334 Q 74.119 32.504 74.869 31.004 Q 75.619 29.504 75.619 27.824 Q 75.619 25.784 74.539 24.674 Q 73.459 23.564 71.299 23.564 Q 69.979 23.564 68.959 24.254 Q 67.939 24.944 67.339 26.294 Q 66.739 27.644 66.679 29.684 L 56.599 29.684 Q 56.719 24.404 58.819 21.104 Q 60.919 17.804 64.339 16.214 Q 67.759 14.624 71.839 14.624 Q 76.879 14.624 80.059 16.364 Q 83.239 18.104 84.739 20.984 Q 86.239 23.864 86.239 27.284 Q 86.239 29.984 85.429 32.234 Q 84.619 34.484 82.639 36.914 Q 80.659 39.344 77.059 42.644 L 70.879 48.284 L 86.959 48.284 L 86.959 57.044 L 56.719 57.044 Z M 105.257 57.464 Q 100.577 57.464 96.917 55.544 Q 93.257 53.624 91.127 50.234 Q 88.997 46.844 88.997 42.464 Q 88.997 39.284 90.287 35.924 Q 91.577 32.564 94.337 28.844 L 104.597 15.044 L 116.117 15.044 L 103.877 31.124 L 95.597 40.904 Q 96.437 35.204 99.797 32.144 Q 103.157 29.084 107.897 29.084 Q 111.557 29.084 114.617 30.674 Q 117.677 32.264 119.537 35.294 Q 121.397 38.324 121.397 42.704 Q 121.397 47.204 119.177 50.534 Q 116.957 53.864 113.297 55.664 Q 109.637 57.464 105.257 57.464 Z M 99.557 42.764 Q 99.557 44.504 100.247 45.824 Q 100.937 47.144 102.227 47.864 Q 103.517 48.584 105.257 48.584 Q 106.997 48.584 108.257 47.864 Q 109.517 47.144 110.177 45.824 Q 110.837 44.504 110.837 42.764 Q 110.837 41.024 110.177 39.734 Q 109.517 38.444 108.257 37.724 Q 106.997 37.004 105.257 37.004 Q 103.517 37.004 102.227 37.724 Q 100.937 38.444 100.247 39.734 Q 99.557 41.024 99.557 42.764 Z M 151.877 15.044 L 151.877 23.804 L 134.177 23.804 L 134.177 31.424 Q 135.377 30.104 137.027 29.384 Q 138.677 28.664 141.257 28.664 Q 144.737 28.664 147.257 29.864 Q 149.777 31.064 151.427 33.044 Q 153.077 35.024 153.857 37.514 Q 154.637 40.004 154.637 42.524 Q 154.637 47.204 152.747 50.564 Q 150.857 53.924 147.437 55.694 Q 144.017 57.464 139.277 57.464 Q 134.297 57.464 130.787 55.754 Q 127.277 54.044 125.387 51.104 Q 123.497 48.164 123.317 44.384 L 133.577 44.384 Q 133.877 45.944 135.167 47.234 Q 136.457 48.524 138.917 48.524 Q 140.717 48.524 141.827 47.834 Q 142.937 47.144 143.477 45.764 Q 144.017 44.384 144.017 42.464 Q 144.017 39.704 142.667 38.384 Q 141.317 37.064 138.797 37.064 Q 136.877 37.064 135.617 38.114 Q 134.357 39.164 133.997 40.484 L 123.737 40.484 L 123.737 15.044 Z" style="fill: url(&quot;#color-0-0&quot;); text-wrap-mode: nowrap;"/>
  <defs>
    <linearGradient id="gradient-2">
      <stop offset="0" style="stop-color: rgb(233, 209, 51);"/>
      <stop offset="0.249" style="stop-color: rgb(213, 189, 34);"/>
      <stop offset="0.653" style="stop-color: rgb(230, 215, 126);"/>
      <stop offset="1" style="stop-color: rgb(184, 155, 2);"/>
    </linearGradient>
    <linearGradient bx:pinned="true" id="color-0">
      <stop style="stop-color: rgb(135, 133, 121);" offset="0.037"/>
      <stop style="stop-color: rgb(225, 225, 225);" offset="0.33"/>
      <stop style="stop-color: rgb(229, 229, 229);" offset="0.69"/>
      <stop style="stop-color: rgb(65, 65, 65);" offset="1"/>
    </linearGradient>
    <linearGradient id="color-0-0" href="#color-0" gradientUnits="userSpaceOnUse" x1="177.021" y1="65.73" x2="177.021" y2="137.744" gradientTransform="matrix(1, 0, 0, 1, -100.202888, -65.672997)"/>
  </defs>
  <rect x="28.068" y="62.17" width="103.327" height="36.791" style="fill: url(&quot;#gradient-2&quot;);"/>
  <path d="M 34.515 68.614 L 38.943 68.614 L 38.943 79.198 L 50.643 79.198 L 50.643 68.614 L 55.035 68.614 L 55.035 93.814 L 50.643 93.814 L 50.643 82.906 L 38.943 82.906 L 38.943 93.814 L 34.515 93.814 Z M 76.284 72.322 L 63.36 72.322 L 63.36 79.234 L 73.044 79.234 L 73.044 82.87 L 63.36 82.87 L 63.36 90.106 L 76.284 90.106 L 76.284 93.814 L 58.932 93.814 L 58.932 68.614 L 76.284 68.614 Z M 96.934 68.614 L 101.65 68.614 L 92.29 93.814 L 87.034 93.814 L 77.674 68.614 L 82.426 68.614 L 89.662 89.278 Z M 101.522 81.214 Q 101.522 78.37 102.476 76.012 Q 103.43 73.654 105.176 71.944 Q 106.922 70.234 109.244 69.298 Q 111.566 68.362 114.266 68.362 Q 118.01 68.362 121.034 70.162 Q 124.058 71.962 125.57 75.31 L 121.934 76.498 Q 121.106 74.95 119.846 73.978 Q 118.586 73.006 117.164 72.574 Q 115.742 72.142 114.374 72.142 Q 111.962 72.142 110.054 73.276 Q 108.146 74.41 107.066 76.444 Q 105.986 78.478 105.986 81.214 Q 105.986 83.95 107.066 85.984 Q 108.146 88.018 110.054 89.152 Q 111.962 90.286 114.374 90.286 Q 115.778 90.286 117.254 89.836 Q 118.73 89.386 120.062 88.27 Q 121.394 87.154 122.258 85.282 L 125.894 86.398 Q 124.274 90.286 121.196 92.176 Q 118.118 94.066 114.266 94.066 Q 111.566 94.066 109.244 93.13 Q 106.922 92.194 105.176 90.466 Q 103.43 88.738 102.476 86.38 Q 101.522 84.022 101.522 81.214 Z" style="text-wrap-mode: nowrap;"/>
</svg>