<?xml version="1.0" encoding="utf-8"?>
<svg xmlns="http://www.w3.org/2000/svg" viewBox="0 0 43.509 11.226">
  <defs>
    <style>.cls-1 { fill: url("#linear-gradient-2"); }
.cls-2 { clip-path: url("#clippath-20"); }
.cls-3 { clip-path: url("#clippath-11"); }
.cls-4 { clip-path: url("#clippath-16"); }
.cls-5 { fill: url("#linear-gradient-17"); }
.cls-6 { fill: rgb(158, 103, 52); }
.cls-7 { clip-path: url("#clippath-33"); }
.cls-8 { clip-path: url("#clippath-32"); }
.cls-9 { fill: url("#linear-gradient-15"); }
.cls-10 { fill: url("#linear-gradient-14"); }
.cls-11 { fill: url("#linear-gradient-6"); }
.cls-12 { clip-path: url("#clippath-2"); }
.cls-13 { clip-path: url("#clippath-13"); }
.cls-14 { isolation: isolate; }
.cls-15 { fill: rgb(255, 255, 255); }
.cls-16 { clip-path: url("#clippath-37"); }
.cls-17 { clip-path: url("#clippath-25"); }
.cls-18 { clip-path: url("#clippath-15"); }
.cls-19 { clip-path: url("#clippath-6"); }
.cls-20 { clip-path: url("#clippath-26"); }
.cls-21 { fill: rgb(124, 54, 39); }
.cls-22 { fill: url("#linear-gradient-11"); }
.cls-23 { clip-path: url("#clippath-7"); }
.cls-24 { clip-path: url("#clippath-21"); }
.cls-25 { clip-path: url("#clippath-34"); }
.cls-26 { clip-path: url("#clippath-1"); }
.cls-27 { clip-path: url("#clippath-4"); }
.cls-28 { clip-path: url("#clippath-38"); }
.cls-29 { fill: url("#linear-gradient-10"); }
.cls-30 { clip-path: url("#clippath-36"); }
.cls-31 { clip-path: url("#clippath-27"); }
.cls-32 { fill: rgb(38, 92, 78); }
.cls-33, .cls-34 { opacity: 0.8; }
.cls-35 { fill: url("#linear-gradient-16"); }
.cls-36 { clip-path: url("#clippath-12"); }
.cls-37 { mix-blend-mode: multiply; opacity: 0.10001; }
.cls-38 { clip-path: url("#clippath-24"); }
.cls-39 { clip-path: url("#clippath-30"); }
.cls-40 { clip-path: url("#clippath-22"); }
.cls-41 { fill: url("#linear-gradient-5"); }
.cls-42 { clip-path: url("#clippath-9"); }
.cls-43 { clip-path: url("#clippath"); }
.cls-34, .cls-44 { mix-blend-mode: screen; }
.cls-45 { clip-path: url("#clippath-39"); }
.cls-46 { fill: none; }
.cls-47 { clip-path: url("#clippath-19"); }
.cls-48 { clip-path: url("#clippath-31"); }
.cls-49 { clip-path: url("#clippath-3"); }
.cls-50 { fill: url("#linear-gradient-7"); }
.cls-51 { fill: rgb(54, 122, 69); }
.cls-52 { fill: rgb(104, 143, 65); }
.cls-53 { clip-path: url("#clippath-8"); }
.cls-54 { fill: url("#linear-gradient-9"); }
.cls-55 { clip-path: url("#clippath-29"); }
.cls-56 { clip-path: url("#clippath-18"); }
.cls-57 { clip-path: url("#clippath-14"); }
.cls-58 { fill: url("#linear-gradient-3"); }
.cls-59 { clip-path: url("#clippath-17"); }
.cls-60 { clip-path: url("#clippath-5"); }
.cls-61 { fill: url("#linear-gradient"); }
.cls-62 { fill: rgb(168, 65, 47); }
.cls-63 { clip-path: url("#clippath-10"); }
.cls-64 { clip-path: url("#clippath-23"); }
.cls-65 { fill: url("#linear-gradient-4"); }
.cls-44 { opacity: 0.5; }
.cls-66 { clip-path: url("#clippath-28"); }
.cls-67 { fill: url("#linear-gradient-8"); }
.cls-68 { fill: url("#linear-gradient-12"); }
.cls-69 { clip-path: url("#clippath-35"); }
.cls-70 { fill: url("#linear-gradient-13"); }</style>
  </defs>
  <path class="cls-15" d="M 34.504 6.238 L 38.481 6.238 L 40.729 6.206 C 41.796 6.206 42.44 5.821 42.864 5.338 C 43.289 4.854 43.502 4.251 43.502 3.528 L 43.502 2.731 C 43.502 2.327 43.439 1.961 43.311 1.631 C 43.183 1.302 42.979 1.017 42.697 0.779 C 42.416 0.539 42.05 0.36 41.605 0.22 C 41.135 0.074 40.617 0.001 39.98 0.001 L 29.247 0.001 L 31.436 1.679 L 39.98 1.679 C 40.914 1.679 41.382 2.025 41.382 2.715 L 41.382 3.544 C 41.382 4.235 40.914 4.58 39.98 4.58 L 31.303 4.58 L 31.303 2.219 L 29.183 0.613 L 29.183 11.221 L 31.303 11.221 L 31.303 6.416 L 39.946 11.226 L 43.509 11.226 L 34.504 6.238 Z"/>
  <path class="cls-15" d="M 28.324 1.865 C 28.191 1.45 27.965 1.105 27.646 0.829 C 27.328 0.553 26.903 0.345 26.371 0.207 C 25.84 0.069 25.176 0 24.379 0 L 14.097 0 L 14.097 0.009 L 16.274 1.658 L 24.379 1.658 C 24.772 1.658 25.098 1.685 25.359 1.737 C 25.619 1.791 25.826 1.881 25.981 2.009 C 26.135 2.136 26.244 2.306 26.307 2.519 C 26.371 2.731 26.403 2.997 26.403 3.316 L 26.403 8.002 C 26.403 8.3 26.371 8.549 26.307 8.751 C 26.244 8.953 26.135 9.113 25.981 9.229 C 25.826 9.346 25.619 9.431 25.359 9.484 L 16.218 9.564 L 16.218 2.256 L 14.097 0.65 L 14.097 11.221 L 24.379 11.221 C 25.176 11.221 25.84 11.153 26.371 11.014 C 26.903 10.876 27.328 10.675 27.646 10.409 C 27.965 10.143 28.191 9.811 28.324 9.412 C 28.457 9.014 28.523 8.549 28.523 8.018 L 28.523 3.316 C 28.523 2.763 28.457 2.28 28.324 1.865"/>
  <polygon class="cls-15" points="0 5.23 0 11.222 2.12 11.222 2.12 6.836 0 5.23"/>
  <polygon class="cls-15" points="11.302 0 11.302 4.556 2.121 4.556 2.121 0 0.001 0 0.001 4.589 2.146 6.214 11.302 6.214 11.302 11.222 13.422 11.222 13.422 0 11.302 0"/>
</svg>