<?xml version="1.0" encoding="utf-8"?>
<svg xmlns="http://www.w3.org/2000/svg" version="1.1" id="Layer_1" x="0px" y="0px" width="224.86499" height="55.021" viewBox="-32 0 219.263 55.021" enable-background="new 0 0 273.375 55.021">
  <path d="M 181.774 1 L 175.375 13.046 L 169.192 1 L 163.399 1 C 164.481 3.04 172.055 17.86 172.055 17.86 L 172.055 27.629 L 178.282 27.629 C 178.286 26.301 178.282 17.898 178.282 17.898 C 178.282 17.898 186.149 3.049 187.263 1 L 181.774 1 L 181.774 1 Z" id="path2988" style="fill: rgb(255, 255, 255);"/>
  <path d="M 107.349 18.37 C 107.349 23.254 105.692 24.368 101.036 24.368 C 96.381 24.368 94.727 23.255 94.727 18.37 L 94.727 10.126 C 94.727 5.362 96.381 4.329 101.036 4.329 C 105.69 4.329 107.349 5.36 107.349 10.126 L 107.349 18.37 Z M 110.016 2.012 C 108.175 0.689 105.069 0 101.033 0 C 97.095 0 94.227 0.564 92.035 2.021 C 89.744 3.546 88.665 6.1 88.665 10.088 L 88.665 18.755 C 88.665 22.753 89.784 25.456 92.014 26.801 C 93.812 28.09 96.745 28.702 101.035 28.702 C 105.26 28.702 108.276 28.072 110.006 26.832 C 112.24 25.405 113.404 22.626 113.404 18.755 L 113.404 10.088 C 113.404 6.291 112.261 3.572 110.016 2.012" id="path2990" style="fill: rgb(255, 255, 255);"/>
  <path d="M 77.732 17.2 C 77.732 21.727 75.203 22.872 73.082 22.872 L 65.584 22.872 L 65.584 4.797 L 73.082 4.797 C 75.204 4.797 77.732 5.936 77.732 10.151 L 77.732 17.2 L 77.732 17.2 Z M 73.031 1 L 59.471 1 L 59.471 26.864 L 73.983 26.864 C 81.135 26.864 83.797 24.076 83.797 16.576 L 83.797 10.89 C 83.798 3.774 80.775 1 73.031 1" id="path2992" style="fill: rgb(255, 255, 255);"/>
  <polygon points="118.063 1 118.063 27.247 136.09 27.247 136.09 22.877 124.402 22.877 124.402 1" id="polygon2994" style="fill: rgb(255, 255, 255);"/>
  <path d="M 154.779 13.361 C 159.771 12.934 160.857 10.652 160.857 7.372 C 160.857 4.484 159.541 3.013 158.103 2.183 C 156.903 1.474 155.477 1 152.485 1 L 139.325 1 L 139.325 27.247 L 152.659 27.247 C 156.76 27.247 158.463 26.495 159.261 25.99 C 160.611 25.143 162.368 23.271 162.368 20.284 C 162.367 16.755 161.058 13.221 154.779 13.361 M 151.415 23.433 L 145.666 23.433 L 145.666 23.41 L 145.666 4.778 L 145.666 4.764 L 151.923 4.764 C 154.033 4.764 155.36 6.327 155.36 8.475 C 155.36 11.767 153.649 11.846 148.78 12.01 L 148.78 15.052 C 153.13 15.033 156.62 14.79 156.62 18.993 C 156.619 21.107 155.178 23.433 151.415 23.433" id="path2998" style="fill: rgb(255, 255, 255);"/>
  <path d="M -32 55.021 L 47.292 55.021 L 47.292 0 L -32 0 L -32 55.021 Z M -13.608 47.885 L -22.648 47.885 L -22.648 7.134 L -13.61 7.134 C -4.227 7.134 3.617 16.447 3.617 27.431 C 3.617 38.738 -4.226 47.885 -13.608 47.885 M 37.954 47.885 L 28.886 47.885 C 19.496 47.885 11.667 38.739 11.667 27.43 C 11.667 16.447 19.498 7.133 28.886 7.133 L 37.954 7.133 L 37.954 47.885 Z" id="path3000" style="fill: rgb(255, 255, 255);"/>
  <path d="M 89.785 54.188 L 85.734 47.494 L 83.7 47.494 L 83.7 54.188 L 79.747 54.188 L 79.747 35.141 L 89.425 35.141 C 90.348 35.141 91.101 35.272 91.692 35.54 C 92.288 35.806 92.761 36.158 93.107 36.613 C 93.459 37.056 93.698 37.576 93.834 38.162 C 93.975 38.758 94.039 39.363 94.039 40.01 L 94.039 42.567 C 94.039 43.082 93.994 43.617 93.897 44.164 C 93.803 44.718 93.617 45.225 93.342 45.682 C 93.057 46.138 92.67 46.517 92.179 46.82 C 91.686 47.124 91.04 47.275 90.242 47.275 L 89.736 47.275 L 94.319 54.187 L 89.786 54.187 L 89.785 54.188 L 89.785 54.188 Z M 90.142 39.929 C 90.142 39.345 89.996 38.909 89.711 38.652 C 89.416 38.381 88.999 38.252 88.458 38.252 L 83.698 38.252 L 83.698 44.361 L 88.508 44.361 C 89.596 44.361 90.143 43.787 90.143 42.649 L 90.142 39.929 Z" id="path3004" style="fill-opacity: 1; fill: rgb(255, 255, 255);"/>
  <polygon id="polygon247" points="60.246 38.219 60.246 35.093 76.12 35.093 76.12 38.219 70.365 38.219 70.365 54.188 66.066 54.188 66.066 38.219" style="fill-opacity: 1; fill: rgb(255, 255, 255);"/>
  <path id="path239" d="M 168.66 40.631 C 168.667 38.921 166.847 39.035 166.847 39.035 L 162.902 39.01 L 162.902 49.794 L 166.765 49.821 C 167.923 49.821 168.623 49.29 168.629 47.958 L 168.66 40.631 Z M 168.383 54.095 L 157.735 54.095 L 157.735 35.141 L 168.076 35.141 C 171.99 35.141 173.403 36.84 173.403 39.939 L 173.403 48.826 C 173.403 52.975 171.655 54.095 167.883 54.095" style="fill-opacity: 1; fill: rgb(255, 255, 255);"/>
  <path id="path257" d="M 108.35 54.419 L 103.57 54.419 C 100.134 54.419 98.487 53.32 98.487 49.249 L 98.487 35.105 L 102.504 35.105 L 102.504 49.521 C 102.504 50.729 103.049 51.135 104.013 51.135 L 108.326 51.135 C 109.285 51.135 109.83 50.729 109.83 49.521 L 109.83 35.105 L 113.405 35.105 L 113.405 49.249 C 113.403 53.32 111.791 54.419 108.35 54.419" style="fill-opacity: 1; fill: rgb(255, 255, 255);"/>
  <polygon points="137.319 35.448 137.319 54.073 141.986 54.073 141.986 46.885 148.184 46.823 148.184 54.073 153.153 54.073 153.153 35.448 148.434 35.448 148.23 42.918 141.958 42.885 141.934 35.448" id="polygon3029" style="fill-opacity: 1; fill: rgb(255, 255, 255);"/>
  <path style="stroke: none; fill-opacity: 1; fill: rgb(255, 255, 255);" d="M 131.925 35.481 L 118.312 35.481 L 118.312 54.072 L 131.901 54.08 L 131.901 51.444 L 121.404 51.444 L 121.404 45.383 L 129.465 45.396 L 129.465 42.759 L 121.545 42.757 L 121.584 38.095 L 131.903 38.095 L 131.925 35.481 Z" id="path3805"/>
</svg>